STARTFONT 2.1
COMMENT Created by fdbbdf
FONT msgs10
SIZE 10 78 78
FONTBOUNDINGBOX 29 13 -1 -3
STARTPROPERTIES 4
Ownership "  "
FONT_ASCENT 10
FONT_DESCENT 3
DEFAULT_CHAR 32
ENDPROPERTIES
CHARS 66
STARTCHAR ch-0
ENCODING -1 0
SWIDTH 0 0
DWIDTH 17 0
BBX 0 0 0 0
BITMAP
ENDCHAR
STARTCHAR ch-1
ENCODING -1 1
SWIDTH 0 0
DWIDTH 17 0
BBX 0 0 0 0
BITMAP
ENDCHAR
STARTCHAR ch-2
ENCODING -1 2
SWIDTH 0 0
DWIDTH 17 0
BBX 0 0 0 0
BITMAP
ENDCHAR
STARTCHAR ch-3
ENCODING -1 3
SWIDTH 0 0
DWIDTH 17 0
BBX 0 0 0 0
BITMAP
ENDCHAR
STARTCHAR ch-4
ENCODING -1 4
SWIDTH 0 0
DWIDTH 17 0
BBX 0 0 0 0
BITMAP
ENDCHAR
STARTCHAR ch-5
ENCODING -1 5
SWIDTH 0 0
DWIDTH 17 0
BBX 0 0 0 0
BITMAP
ENDCHAR
STARTCHAR ch-6
ENCODING -1 6
SWIDTH 0 0
DWIDTH 17 0
BBX 0 0 0 0
BITMAP
ENDCHAR
STARTCHAR ch-7
ENCODING -1 7
SWIDTH 0 0
DWIDTH 17 0
BBX 0 0 0 0
BITMAP
ENDCHAR
STARTCHAR ch-8
ENCODING -1 8
SWIDTH 0 0
DWIDTH 17 0
BBX 0 0 0 0
BITMAP
ENDCHAR
STARTCHAR ch-9
ENCODING -1 9
SWIDTH 0 0
DWIDTH 17 0
BBX 0 0 0 0
BITMAP
ENDCHAR
STARTCHAR ch-10
ENCODING -1 10
SWIDTH 0 0
DWIDTH 17 0
BBX 0 0 0 0
BITMAP
ENDCHAR
STARTCHAR ch-11
ENCODING -1 11
SWIDTH 0 0
DWIDTH 17 0
BBX 0 0 0 0
BITMAP
ENDCHAR
STARTCHAR ch-12
ENCODING -1 12
SWIDTH 0 0
DWIDTH 17 0
BBX 0 0 0 0
BITMAP
ENDCHAR
STARTCHAR ch-13
ENCODING -1 13
SWIDTH 0 0
DWIDTH 17 0
BBX 0 0 0 0
BITMAP
ENDCHAR
STARTCHAR ch-14
ENCODING -1 14
SWIDTH 0 0
DWIDTH 17 0
BBX 0 0 0 0
BITMAP
ENDCHAR
STARTCHAR ch-15
ENCODING -1 15
SWIDTH 0 0
DWIDTH 17 0
BBX 0 0 0 0
BITMAP
ENDCHAR
STARTCHAR ch-24
ENCODING -1 24
SWIDTH 0 0
DWIDTH 17 0
BBX 0 0 0 0
BITMAP
ENDCHAR
STARTCHAR ch-25
ENCODING -1 25
SWIDTH 0 0
DWIDTH 17 0
BBX 0 0 0 0
BITMAP
ENDCHAR
STARTCHAR ch-26
ENCODING -1 26
SWIDTH 0 0
DWIDTH 17 0
BBX 0 0 0 0
BITMAP
ENDCHAR
STARTCHAR sp
ENCODING -1 32
SWIDTH 0 0
DWIDTH 7 0
BBX 0 0 0 0
BITMAP
ENDCHAR
STARTCHAR 1
ENCODING -1 49
SWIDTH 0 0
DWIDTH 9 0
BBX 9 11 0 -2
BITMAP
e700
8100
bd00
a500
a500
bd00
a500
a500
8100
e700
0000
ENDCHAR
STARTCHAR 2
ENCODING -1 50
SWIDTH 0 0
DWIDTH 9 0
BBX 9 11 0 -2
BITMAP
e700
8100
bd00
a500
a100
a100
a500
bd00
8100
e700
0000
ENDCHAR
STARTCHAR >
ENCODING -1 62
SWIDTH 0 0
DWIDTH 17 0
BBX 0 0 0 0
BITMAP
ENDCHAR
STARTCHAR A
ENCODING -1 65
SWIDTH 0 0
DWIDTH 19 0
BBX 20 11 0 -2
BITMAP
fffc0000
80040000
83040000
c48c0000
e09c0000
f13c0000
e21c0000
c00c0000
82040000
80040000
fffc0000
ENDCHAR
STARTCHAR B
ENCODING -1 66
SWIDTH 0 0
DWIDTH 29 0
BBX 28 12 0 -3
BITMAP
fffc0000
80040000
83060000
c48e0000
e09e0000
f13e0000
e21e0000
c00e0000
82060000
80060000
fffe0000
3ffe0000
ENDCHAR
STARTCHAR C
ENCODING -1 67
SWIDTH 0 0
DWIDTH 29 0
BBX 28 12 0 -3
BITMAP
fffc0010
80040030
83060060
c48e00c0
e09e0180
f13e4300
e21ee600
c00e7c00
82063800
80061000
fffe0000
3ffe0000
ENDCHAR
STARTCHAR D
ENCODING -1 68
SWIDTH 0 0
DWIDTH 29 0
BBX 28 12 0 -3
BITMAP
fffcffc0
80048040
8306bc60
c48e8060
e09ebf60
f13e8060
e21ebe60
c00e8060
8206bc60
80068060
ffff8070
3ffffff0
ENDCHAR
STARTCHAR E
ENCODING -1 69
SWIDTH 0 0
DWIDTH 29 0
BBX 28 12 0 -3
BITMAP
fffc0000
80041e00
83063f00
c48e3300
e09e0700
f13e0e00
e21e0c00
c00e0c00
82060000
80060c00
fffe0c00
3ffe0000
ENDCHAR
STARTCHAR F
ENCODING -1 70
SWIDTH 0 0
DWIDTH 29 0
BBX 28 12 0 -3
BITMAP
fffc0000
80046f80
83060000
c48e6fe0
e09e0000
f13e6fc0
e21e0000
c00e6f80
82060000
80066fc0
fffe0000
3ffe0000
ENDCHAR
STARTCHAR G
ENCODING -1 71
SWIDTH 0 0
DWIDTH 29 0
BBX 28 12 0 -3
BITMAP
fffc0e00
80043980
830672c0
c48e7340
e09e83e0
f13e8020
e21eb620
c00e5c40
82067840
80063980
fffe0e00
3ffe0000
ENDCHAR
STARTCHAR H
ENCODING -1 72
SWIDTH 0 0
DWIDTH 0 0
BBX 1 1 0 -1
BITMAP
0000
ENDCHAR
STARTCHAR I
ENCODING -1 73
SWIDTH 0 0
DWIDTH 0 0
BBX 2 2 -1 -1
BITMAP
0000
0000
ENDCHAR
STARTCHAR J
ENCODING -1 74
SWIDTH 0 0
DWIDTH 0 0
BBX 2 2 -1 -1
BITMAP
0000
0000
ENDCHAR
STARTCHAR K
ENCODING -1 75
SWIDTH 0 0
DWIDTH 0 0
BBX 2 2 -1 -1
BITMAP
0000
0000
ENDCHAR
STARTCHAR L
ENCODING -1 76
SWIDTH 0 0
DWIDTH 0 0
BBX 2 2 -1 -1
BITMAP
0000
0000
ENDCHAR
STARTCHAR a
ENCODING -1 97
SWIDTH 0 0
DWIDTH 17 0
BBX 16 12 0 -2
BITMAP
fff8
8008
804c
806c
800c
8f8c
800c
8f0c
800c
800c
fffc
3ffc
ENDCHAR
STARTCHAR b
ENCODING -1 98
SWIDTH 0 0
DWIDTH 12 0
BBX 10 12 0 -2
BITMAP
aa80
0000
8080
0040
8080
0040
8a80
0040
8880
0140
aa80
1540
ENDCHAR
STARTCHAR c
ENCODING -1 99
SWIDTH 0 0
DWIDTH 14 0
BBX 13 11 0 -2
BITMAP
fff0
8010
8098
80d8
8018
9f18
8018
9e18
8018
fff8
3ff8
ENDCHAR
STARTCHAR d
ENCODING -1 100
SWIDTH 0 0
DWIDTH 14 0
BBX 13 11 0 -2
BITMAP
fff0
c030
a058
9098
8918
8618
9098
a058
c038
fff8
3ff8
ENDCHAR
STARTCHAR e
ENCODING -1 101
SWIDTH 0 0
DWIDTH 9 0
BBX 9 11 0 -2
BITMAP
e700
8100
9900
a500
8500
8900
9100
bd00
8100
e700
0000
ENDCHAR
STARTCHAR f
ENCODING -1 102
SWIDTH 0 0
DWIDTH 13 0
BBX 12 10 0 -1
BITMAP
0010
0030
0060
00c0
0180
4300
e600
7c00
3800
1000
ENDCHAR
STARTCHAR g
ENCODING -1 103
SWIDTH 0 0
DWIDTH 22 0
BBX 23 11 0 -2
BITMAP
00000000
60600000
90900000
88880000
44440000
02020000
03870000
04788000
04488000
04488000
03870000
ENDCHAR
STARTCHAR h
ENCODING -1 104
SWIDTH 0 0
DWIDTH 0 0
BBX 2 2 -1 -1
BITMAP
0000
0000
ENDCHAR
STARTCHAR i
ENCODING -1 105
SWIDTH 0 0
DWIDTH 12 0
BBX 10 12 0 -2
BITMAP
aa80
0000
8080
0040
8080
0040
8a80
0040
8880
0140
aa80
1540
ENDCHAR
STARTCHAR j
ENCODING -1 106
SWIDTH 0 0
DWIDTH 16 0
BBX 13 9 0 -1
BITMAP
e700
7380
39c0
1ce0
0e70
1ce0
39c0
7380
e700
ENDCHAR
STARTCHAR k
ENCODING -1 107
SWIDTH 0 0
DWIDTH 7 0
BBX 0 0 0 0
BITMAP
ENDCHAR
STARTCHAR l
ENCODING -1 108
SWIDTH 0 0
DWIDTH 7 0
BBX 0 0 0 0
BITMAP
ENDCHAR
STARTCHAR m
ENCODING -1 109
SWIDTH 0 0
DWIDTH 7 0
BBX 0 0 0 0
BITMAP
ENDCHAR
STARTCHAR n
ENCODING -1 110
SWIDTH 0 0
DWIDTH 12 0
BBX 12 10 0 -1
BITMAP
0010
0030
0060
00c0
0180
4300
e600
7c00
3800
1000
ENDCHAR
STARTCHAR o
ENCODING -1 111
SWIDTH 0 0
DWIDTH 16 0
BBX 14 12 0 -2
BITMAP
aaa8
0000
8048
0024
8008
0a84
8008
0a04
8008
0004
aaa8
1554
ENDCHAR
STARTCHAR p
ENCODING -1 112
SWIDTH 0 0
DWIDTH 7 0
BBX 0 0 0 0
BITMAP
ENDCHAR
STARTCHAR q
ENCODING -1 113
SWIDTH 0 0
DWIDTH 12 0
BBX 10 12 0 -2
BITMAP
aa80
0000
a280
0040
8080
0040
8a80
0040
8880
0140
aa80
1540
ENDCHAR
STARTCHAR r
ENCODING -1 114
SWIDTH 0 0
DWIDTH 16 0
BBX 16 11 0 -2
BITMAP
01f0
0208
7e0c
800c
800c
800c
800c
800c
800c
fffc
3ffc
ENDCHAR
STARTCHAR s
ENCODING -1 115
SWIDTH 0 0
DWIDTH 16 0
BBX 14 12 0 -2
BITMAP
aaa8
0000
8048
0024
8008
0a84
8008
0a04
8008
0004
aaa8
1554
ENDCHAR
STARTCHAR t
ENCODING -1 116
SWIDTH 0 0
DWIDTH 12 0
BBX 10 12 0 -2
BITMAP
ff80
8080
80c0
80c0
80c0
80c0
8fc0
88c0
89c0
8bc0
ffc0
3fc0
ENDCHAR
STARTCHAR u
ENCODING -1 117
SWIDTH 0 0
DWIDTH 17 0
BBX 14 12 0 -2
BITMAP
fff8
8008
a02c
800c
800c
800c
80fc
808c
809c
80bc
fffc
3f00
ENDCHAR
STARTCHAR v
ENCODING -1 118
SWIDTH 0 0
DWIDTH 15 0
BBX 14 12 0 -2
BITMAP
aaa8
0000
a028
0004
8008
0154
8008
0114
8028
0154
aaa8
1500
ENDCHAR
STARTCHAR w
ENCODING -1 119
SWIDTH 0 0
DWIDTH 7 0
BBX 0 0 0 0
BITMAP
ENDCHAR
STARTCHAR x
ENCODING -1 120
SWIDTH 0 0
DWIDTH 7 0
BBX 0 0 0 0
BITMAP
ENDCHAR
STARTCHAR y
ENCODING -1 121
SWIDTH 0 0
DWIDTH 7 0
BBX 0 0 0 0
BITMAP
ENDCHAR
STARTCHAR z
ENCODING -1 122
SWIDTH 0 0
DWIDTH 7 0
BBX 0 0 0 0
BITMAP
ENDCHAR
STARTCHAR {
ENCODING -1 123
SWIDTH 0 0
DWIDTH 7 0
BBX 0 0 0 0
BITMAP
ENDCHAR
STARTCHAR |
ENCODING -1 124
SWIDTH 0 0
DWIDTH 7 0
BBX 0 0 0 0
BITMAP
ENDCHAR
STARTCHAR }
ENCODING -1 125
SWIDTH 0 0
DWIDTH 7 0
BBX 0 0 0 0
BITMAP
ENDCHAR
STARTCHAR ~
ENCODING -1 126
SWIDTH 0 0
DWIDTH 7 0
BBX 0 0 0 0
BITMAP
ENDCHAR
STARTCHAR ch-127
ENCODING -1 127
SWIDTH 0 0
DWIDTH 7 0
BBX 0 0 0 0
BITMAP
ENDCHAR
ENDFONT
